<mxfile host="Electron" agent="Mozilla/5.0 (Windows NT 10.0; Win64; x64) AppleWebKit/537.36 (KHTML, like Gecko) draw.io/26.2.2 Chrome/134.0.6998.178 Electron/35.1.2 Safari/537.36" version="26.2.2">
  <diagram name="Pagina-1" id="8Svm5JOt0Mb_HUVV9dsS">
    <mxGraphModel dx="397" dy="234" grid="1" gridSize="10" guides="1" tooltips="1" connect="1" arrows="1" fold="1" page="1" pageScale="1" pageWidth="827" pageHeight="1169" math="1" shadow="0">
      <root>
        <mxCell id="0" />
        <mxCell id="1" parent="0" />
        <mxCell id="_8DZXgEn1BDJUoqV-e3e-3" value="" style="ellipse;whiteSpace=wrap;html=1;fillColor=none;connectable=0;" vertex="1" parent="1">
          <mxGeometry x="230" y="185" width="450" height="190" as="geometry" />
        </mxCell>
        <mxCell id="_8DZXgEn1BDJUoqV-e3e-2" value="" style="ellipse;whiteSpace=wrap;html=1;aspect=fixed;connectable=0;" vertex="1" parent="1">
          <mxGeometry x="320" y="240" width="80" height="80" as="geometry" />
        </mxCell>
        <mxCell id="_8DZXgEn1BDJUoqV-e3e-4" value="" style="endArrow=none;html=1;rounded=0;startArrow=classicThin;startFill=1;endFill=1;" edge="1" parent="1">
          <mxGeometry width="50" height="50" relative="1" as="geometry">
            <mxPoint x="230" y="280" as="sourcePoint" />
            <mxPoint x="360" y="280" as="targetPoint" />
          </mxGeometry>
        </mxCell>
        <mxCell id="_8DZXgEn1BDJUoqV-e3e-6" value="" style="endArrow=classicThin;html=1;rounded=0;startArrow=none;startFill=0;endFill=1;" edge="1" parent="1">
          <mxGeometry width="50" height="50" relative="1" as="geometry">
            <mxPoint x="360" y="280" as="sourcePoint" />
            <mxPoint x="680" y="280" as="targetPoint" />
          </mxGeometry>
        </mxCell>
        <mxCell id="_8DZXgEn1BDJUoqV-e3e-7" value="$$r_0$$" style="text;html=1;align=center;verticalAlign=middle;resizable=0;points=[];autosize=1;strokeColor=none;fillColor=none;" vertex="1" parent="1">
          <mxGeometry x="250" y="280" width="70" height="30" as="geometry" />
        </mxCell>
        <mxCell id="_8DZXgEn1BDJUoqV-e3e-8" value="$$r_1$$" style="text;html=1;align=center;verticalAlign=middle;resizable=0;points=[];autosize=1;strokeColor=none;fillColor=none;" vertex="1" parent="1">
          <mxGeometry x="490" y="280" width="70" height="30" as="geometry" />
        </mxCell>
        <mxCell id="_8DZXgEn1BDJUoqV-e3e-9" value="" style="ellipse;whiteSpace=wrap;html=1;aspect=fixed;strokeColor=none;fillColor=#3399FF;" vertex="1" parent="1">
          <mxGeometry x="357.5" y="277.5" width="5" height="5" as="geometry" />
        </mxCell>
      </root>
    </mxGraphModel>
  </diagram>
</mxfile>
